<svg width="20" height="20" viewBox="0 0 20 20" fill="none" xmlns="http://www.w3.org/2000/svg">
<path d="M19.4582 8.67104L15.8364 4.95398C15.3393 4.47214 14.5581 4.47214 14.061 4.88514C13.5639 5.36699 13.5639 6.12417 13.99 6.60601L16.0494 8.73988H1.27827C0.568121 8.73988 0 9.29055 0 9.9789C0 10.6672 0.568121 11.2179 1.27827 11.2179H16.1204L14.061 13.3518C13.5639 13.8336 13.6349 14.5908 14.132 15.0727C14.3451 15.2792 14.7001 15.4168 14.9842 15.4168C15.3393 15.4168 15.6233 15.2792 15.9074 15.0727L19.5292 11.3556C20.1683 10.5296 20.1683 9.42822 19.4582 8.67104Z" fill="#45525B"/>
</svg>
