<svg width="102" height="36" viewBox="0 0 102 36" fill="none" xmlns="http://www.w3.org/2000/svg">
<path fill-rule="evenodd" clip-rule="evenodd" d="M57.5929 23.5816C59.0075 23.5816 60.136 23.9396 60.9793 24.656C61.8222 25.3725 62.2866 26.3388 62.3726 27.5544H59.5002C59.4575 27.0764 59.261 26.6968 58.9113 26.415C58.5607 26.1323 58.0926 25.9916 57.5074 25.9916C56.9641 25.9916 56.5461 26.0923 56.253 26.2955C55.9605 26.4978 55.8137 26.7805 55.8137 27.1418C55.8137 27.5473 56.0143 27.855 56.4137 28.0653C56.8141 28.2746 57.4359 28.4882 58.2793 28.7056C59.1366 28.922 59.8439 29.1473 60.4011 29.3788C60.9584 29.6102 61.4396 29.9678 61.8468 30.4528C62.2541 30.9378 62.465 31.5785 62.4794 32.3745C62.4794 33.0689 62.2899 33.6917 61.9114 34.2422C61.5329 34.7916 60.9896 35.2226 60.2823 35.5335C59.575 35.8445 58.7502 35.9997 57.8074 35.9997C56.8349 35.9997 55.9637 35.8224 55.1928 35.4681C54.421 35.1139 53.8098 34.6326 53.3598 34.0248C52.9098 33.417 52.6636 32.7438 52.62 32.0052H55.6428C55.6995 32.4691 55.9247 32.8525 56.3176 33.1564C56.71 33.4603 57.1995 33.6122 57.7856 33.6122C58.3568 33.6122 58.804 33.4965 59.1249 33.2651C59.4468 33.0336 59.6075 32.7368 59.6075 32.3745C59.6075 31.9841 59.411 31.6905 59.0177 31.4953C58.6252 31.2991 58.0001 31.0865 57.1428 30.855C56.2568 30.6377 55.5318 30.4133 54.968 30.1818C54.4028 29.9504 53.9171 29.5952 53.5098 29.1181C53.1025 28.6402 52.8991 27.9961 52.8991 27.1851C52.8991 26.5199 53.0886 25.9121 53.4671 25.3617C53.8455 24.8113 54.3889 24.3775 55.0962 24.0586C55.8035 23.7406 56.6353 23.5816 57.5929 23.5816ZM75.3389 23.5818C76.2241 23.5818 76.9996 23.763 77.6642 24.1242C78.3288 24.4865 78.8605 24.9423 79.2608 25.4918V23.7771H82.2828V35.8048H79.2608V34.0458C78.8754 34.6103 78.3427 35.0775 77.6642 35.4458C76.9857 35.8151 76.2032 36 75.3171 36C74.3167 36 73.4065 35.7394 72.585 35.2181C71.7625 34.6978 71.1128 33.963 70.634 33.0151C70.1552 32.0671 69.9165 30.9776 69.9165 29.7469C69.9165 28.5313 70.1552 27.4535 70.634 26.5122C71.1128 25.5723 71.7625 24.8487 72.585 24.3416C73.4065 23.8354 74.3237 23.5818 75.3389 23.5818ZM96.1489 23.5816C97.2774 23.5816 98.2894 23.8272 99.182 24.3192C100.074 24.8113 100.767 25.5104 101.261 26.415C101.754 27.3197 102 28.3575 102 29.5308C102 29.9645 101.971 30.355 101.915 30.7031H93.2343C93.3058 31.5715 93.6058 32.2518 94.1343 32.7439C94.6628 33.2359 95.3134 33.4815 96.0844 33.4815C97.1989 33.4815 97.9926 32.9974 98.4635 32.0274H101.7C101.357 33.1856 100.7 34.1368 99.7281 34.8825C98.7566 35.6281 97.5635 35.9998 96.1489 35.9998C95.0055 35.9998 93.981 35.7429 93.0731 35.2297C92.1661 34.7155 91.4588 33.9886 90.9512 33.0478C90.4446 32.1069 90.191 31.0211 90.191 29.7904C90.191 28.5466 90.4404 27.4538 90.941 26.512C91.4407 25.572 92.1411 24.8485 93.0415 24.3414C93.9416 23.8352 94.9777 23.5816 96.1489 23.5816ZM51.8271 20.6284V23.1038H46.1474V26.9036H51.1849V29.3131H46.1474V33.3293H51.8271V35.8047H43.1473V20.6284H51.8271ZM67.1518 20.8023V23.7769H69.8092V26.2735H67.1518V32.0924C67.1518 32.4974 67.248 32.7905 67.4407 32.9716C67.6339 33.1528 67.9585 33.2426 68.4164 33.2426H69.8092V35.8046H67.9228C65.3936 35.8046 64.129 34.5598 64.129 32.0708V26.2735H62.7144V23.7769H64.129V20.8023H67.1518ZM87.4272 20.8023V23.7769H90.0845V26.2735H87.4272V32.0924C87.4272 32.4974 87.5233 32.7905 87.716 32.9716C87.9092 33.1528 88.2338 33.2426 88.6917 33.2426H90.0845V35.8046H88.1981C85.6689 35.8046 84.4043 34.5598 84.4043 32.0708V26.2735H82.9897V23.7769H84.4043V20.8023H87.4272ZM76.1098 26.2525C75.5525 26.2525 75.0389 26.3894 74.5671 26.6651C74.0952 26.9398 73.7135 27.3416 73.4204 27.8689C73.1274 28.3982 72.9811 29.0234 72.9811 29.7469C72.9811 30.4714 73.1274 31.1041 73.4204 31.6475C73.7135 32.1899 74.0989 32.6058 74.5777 32.8956C75.0566 33.1854 75.5674 33.3293 76.1098 33.3293C76.6671 33.3293 77.1887 33.1891 77.6754 32.9064C78.1602 32.6246 78.5466 32.2191 78.8327 31.6908C79.1178 31.1625 79.2608 30.5288 79.2608 29.7902C79.2608 29.0526 79.1178 28.4194 78.8327 27.8911C78.5466 27.3627 78.1602 26.9572 77.6754 26.6754C77.1887 26.3927 76.6671 26.2525 76.1098 26.2525ZM96.0635 26.0782C95.3204 26.0782 94.6953 26.3064 94.1877 26.7622C93.681 27.2181 93.3699 27.8513 93.2556 28.6614H98.8926C98.8778 27.8805 98.5996 27.2543 98.0562 26.7843C97.5138 26.3134 96.8492 26.0782 96.0635 26.0782Z" fill="#45525B"/>
<path fill-rule="evenodd" clip-rule="evenodd" d="M20.8587 -1L35.9353 14.3071V35.8048H32.4369V15.773L18.3825 1.50838L20.8587 -1ZM10.968 9.03314L21.9354 20.1712V35.8049H0V20.1712L10.968 9.03314ZM15.9132 4.01652L28.939 17.2391V35.8045H25.4406V18.705L13.444 6.5249L15.9132 4.01652Z" fill="#FF8A63"/>
</svg>
