<svg width="18" height="19" viewBox="0 0 18 19" fill="none" xmlns="http://www.w3.org/2000/svg">
<path d="M17.6544 12.2792C17.6544 12.2792 17.6544 12.2468 17.6544 12.2792C17.6544 12.2468 17.6544 12.2468 17.6544 12.2468L14.9449 6.24026V0.980519C14.9449 -0.0909091 14.0842 -1 13.0005 -1H4.96767C3.91576 -1 3.02322 -0.123377 3.02322 0.980519V6.24026L0.313752 12.2468C0.281876 12.3117 0.25 12.4091 0.25 12.474V18.4156C0.25 18.7403 0.505009 19 0.82377 19C1.14253 19 1.39754 18.7403 1.39754 18.4156V16.6948H16.6025V18.4156C16.6025 18.7403 16.8575 19 17.1762 19C17.495 19 17.75 18.7403 17.75 18.4156V12.474C17.6862 12.4091 17.6862 12.3442 17.6544 12.2792ZM3.94763 6.92208H13.9886L16.2518 11.9221H1.7163L3.94763 6.92208ZM4.17076 0.980519C4.17076 0.525974 4.5214 0.136364 4.99954 0.136364H13.0005C13.4467 0.136364 13.8292 0.493506 13.8292 0.980519V5.78571H4.17076V0.980519ZM1.39754 15.5584V13.0584H16.6025V15.5584H1.39754Z" fill="#45525B"/>
</svg>
